#!OML:ASF E:\motion texture\Top Level 1\Subject 1\Session 1\male.ASF
:FULLY-SPECIFIED
:DEGREES
129
root 27.3147 17.1219 5.12645 6.74158 -80.8922 1.67844
lowerback 2.88529 -0.599889 -1.30876
upperback -0.0881178 -0.82247 1.67188
thorax -1.66496 -0.395952 2.48587
lowerneck -19.6098 -1.63879 -4.74552
upperneck 9.84503 -2.07128 7.35284
head 6.30814 -0.572334 2.91992
rclavicle -2.28602e-014 -5.1684e-015
rhumerus 4.46117 35.7275 -75.1533
rradius 80.4677
rwrist 19.866
rhand -24.7542 -20.3475
rfingers 7.12502
rthumb 1.74895 -50.3201
lclavicle -2.28602e-014 -5.1684e-015
lhumerus 3.22544 -34.1067 94.9555
lradius 69.0748
lwrist 15.1037
lhand -7.48934 36.4714
lfingers 7.12502
lthumb 18.4001 65.6211
rfemur -40.2676 -4.87792 13.3001
rtibia 24.4663
rfoot -0.927577 -18.1198
rtoes 4.20857
lfemur -2.30279 -5.89369 -19.4182
ltibia 28.3742
lfoot -17.4115 -0.945561
ltoes -18.0142
130
root 27.1519 17.1092 5.10874 7.59589 -80.9148 0.724299
lowerback 3.22569 -0.612364 -1.12611
upperback -0.000806242 -0.834906 1.75344
thorax -1.76696 -0.403772 2.47181
lowerneck -19.6425 -1.61265 -4.73066
upperneck 9.71512 -2.02832 7.32319
head 6.26836 -0.55452 2.91145
rclavicle 4.14466e-014 -3.97569e-016
rhumerus 5.73772 35.9432 -74.4606
rradius 80.3939
rwrist 19.9234
rhand -25.1798 -20.6384
rfingers 7.12502
rthumb 1.33793 -50.614
lclavicle 4.14466e-014 -3.97569e-016
lhumerus 4.22655 -33.9311 94.8065
lradius 69.346
lwrist 16.3113
lhand -7.6043 37.1467
lfingers 7.12502
lthumb 18.2895 66.3069
rfemur -40.4146 -4.79514 13.6353
rtibia 25.2632
rfoot -0.90399 -17.6807
rtoes 4.34703
lfemur -2.63567 -5.86243 -19.109
ltibia 29.7997
lfoot -16.845 -1.20155
ltoes -18.8292
131
root 26.989 17.0973 5.09058 8.55425 -80.9503 -0.336945
lowerback 3.57848 -0.620833 -0.931857
upperback 0.0918262 -0.840384 1.84064
thorax -1.87086 -0.408431 2.45702
lowerneck -19.6683 -1.58367 -4.71461
upperneck 9.57487 -1.98092 7.28802
head 6.22379 -0.535212 2.90135
rclavicle 1.55052e-014 -9.14409e-015
rhumerus 7.03888 36.1284 -73.758
rradius 80.306
rwrist 19.9891
rhand -25.5871 -20.924
rfingers 7.12502
rthumb 0.94451 -50.9017
lclavicle 1.55052e-014 -9.14409e-015
lhumerus 5.23125 -33.7268 94.6638
lradius 69.6073
lwrist 17.4926
lhand -7.7452 37.8226
lfingers 7.12502
lthumb 18.154 66.9955
rfemur -40.5537 -4.72099 14.0132
rtibia 26.1243
rfoot -0.912784 -17.2107
rtoes 4.50292
lfemur -3.04021 -5.80772 -18.7773
ltibia 31.3003
lfoot -16.2032 -1.47414
ltoes -19.5814
132
root 26.8262 17.0862 5.07201 9.61785 -80.999 -1.50494
lowerback 3.94235 -0.62556 -0.726323
upperback 0.190745 -0.839136 1.93205
thorax -1.97488 -0.410088 2.44014
lowerneck -19.6926 -1.55197 -4.69694
upperneck 9.42664 -1.92958 7.24909
head 6.17616 -0.514378 2.89012
rclavicle -1.5207e-014 5.1684e-015
rhumerus 8.36587 36.2806 -73.0479
rradius 80.2036
rwrist 20.0665
rhand -25.9713 -21.2027
rfingers 7.12502
rthumb 0.573504 -51.1816
lclavicle -1.5207e-014 5.1684e-015
lhumerus 6.24023 -33.4952 94.5235
lradius 69.8585
lwrist 18.6436
lhand -7.91048 38.4948
lfingers 7.12502
lthumb 17.995 67.6823
rfemur -40.684 -4.65078 14.4291
rtibia 27.0394
rfoot -0.95926 -16.7182
rtoes 4.69455
lfemur -3.51914 -5.726 -18.4242
ltibia 32.8714
lfoot -15.4892 -1.76265
ltoes -20.2514
133
root 26.6633 17.0759 5.05309 10.7784 -81.0599 -2.77039
lowerback 4.31658 -0.626706 -0.512458
upperback 0.29486 -0.831347 2.027
thorax -2.07963 -0.40881 2.42207
lowerneck -19.7113 -1.51726 -4.67806
upperneck 9.26824 -1.87405 7.20746
head 6.12411 -0.491914 2.87816
rclavicle 1.17283e-014 6.36111e-015
rhumerus 9.71353 36.3993 -72.3339
rradius 80.087
rwrist 20.1563
rhand -26.3283 -21.4663
rfingers 7.12502
rthumb 0.228699 -51.4459
lclavicle 1.17283e-014 6.36111e-015
lhumerus 7.25144 -33.2381 94.3864
lradius 70.0979
lwrist 19.7614
lhand -8.09603 39.1571
lfingers 7.12502
lthumb 17.8164 68.3609
rfemur -40.8033 -4.58216 14.8766
rtibia 27.9971
rfoot -1.03839 -16.2075
rtoes 4.90616
lfemur -4.07318 -5.61557 -18.0532
ltibia 34.5058
lfoot -14.7075 -2.06219
ltoes -20.8451
